<?xml version="1.0" encoding="UTF-8" standalone="no"?>
<svg
   xmlns:dc="http://purl.org/dc/elements/1.1/"
   xmlns:cc="http://creativecommons.org/ns#"
   xmlns:rdf="http://www.w3.org/1999/02/22-rdf-syntax-ns#"
   xmlns:svg="http://www.w3.org/2000/svg"
   xmlns="http://www.w3.org/2000/svg"
   xmlns:sodipodi="http://sodipodi.sourceforge.net/DTD/sodipodi-0.dtd"
   xmlns:inkscape="http://www.inkscape.org/namespaces/inkscape"
   sodipodi:docname="favicon.svg"
   inkscape:version="1.0 (4035a4fb49, 2020-05-01)"
   inkscape:export-ydpi="96"
   inkscape:export-xdpi="96"
   inkscape:export-filename="/home/pnenp/bitmap.png"
   id="svg8"
   version="1.1"
   viewBox="0 0 210 297"
   height="297mm"
   width="210mm">
  <defs
     id="defs2" />
  <sodipodi:namedview
     inkscape:window-maximized="0"
     inkscape:window-y="31"
     inkscape:window-x="4"
     inkscape:window-height="1043"
     inkscape:window-width="952"
     showgrid="false"
     inkscape:document-rotation="0"
     inkscape:current-layer="layer1"
     inkscape:document-units="mm"
     inkscape:cy="591.08664"
     inkscape:cx="221.48068"
     inkscape:zoom="0.98994949"
     inkscape:pageshadow="2"
     inkscape:pageopacity="0.0"
     borderopacity="1.0"
     bordercolor="#666666"
     pagecolor="#ffffff"
     id="base" />
  <metadata
     id="metadata5">
    <rdf:RDF>
      <cc:Work
         rdf:about="">
        <dc:format>image/svg+xml</dc:format>
        <dc:type
           rdf:resource="http://purl.org/dc/dcmitype/StillImage" />
        <dc:title></dc:title>
      </cc:Work>
    </rdf:RDF>
  </metadata>
  <g
     id="layer1"
     inkscape:groupmode="layer"
     inkscape:label="Layer 1">
    <path
       d="m 128.4148,115.69286 c -1.957,-1.92695 -4.27376,-3.46332 -6.75301,-4.63708 -0.83994,-0.39766 -1.71083,-0.72631 -2.56625,-1.08947 -4.43414,-1.60089 -8.68676,-2.01904 -13.35935,-1.26717 -3.29855,0.53078 -4.81202,1.19085 -8.016658,2.26281 -1.386438,0.58768 -2.801641,1.11165 -4.159316,1.76303 -3.611147,1.73252 -11.186361,6.44905 -13.178911,7.80869 -1.87298,1.27806 -4.691579,4.17898 -5.912324,6.0857 -0.87988,1.37432 -1.458574,2.91964 -2.187861,4.37945 -2.606444,7.13811 -4.206785,14.69534 -3.4837,22.33022 0.521772,5.50927 1.1625,6.38474 2.938979,11.59705 0.949201,1.78387 1.767541,3.64379 2.847602,5.35161 2.125498,3.3609 4.485087,6.09514 7.646297,8.519 2.618274,2.00757 6.339453,3.95397 9.466037,5.04811 1.513007,0.52947 3.104354,0.8007 4.656532,1.20105 3.905643,0.34584 4.791423,0.77443 8.621713,-0.25373 4.09974,-1.10049 9.9709,-5.15299 12.4391,-7.16469 1.75023,-1.42652 2.94209,-4.9927 3.74605,-6.9257 0.32243,-1.24426 0.64485,-2.48851 0.96727,-3.73277 0,0 -6.09714,2.91051 -6.09714,2.91051 v 0 c -0.32688,1.20928 -0.65376,2.41856 -0.98064,3.62783 -0.531,1.18148 -0.93505,2.42866 -1.59301,3.54443 -0.65405,1.10914 -2.60375,1.83369 -2.31891,3.08941 0.21865,0.96392 3.5798,-1.59081 2.7952,-0.98968 -1.06062,0.81262 -2.37883,1.24901 -3.6541,1.64774 -3.76041,1.17572 -4.68539,0.76823 -8.58081,0.55411 -4.347318,-0.98302 -5.362728,-0.93892 -9.45325,-3.02153 -3.413419,-1.73788 -6.196549,-3.73033 -8.801526,-6.55809 -3.403248,-3.6943 -3.945067,-5.41404 -6.289791,-9.83344 -1.708825,-5.11327 -2.357657,-6.03987 -2.818077,-11.44357 -0.485283,-5.6955 0.316846,-11.51539 1.95744,-16.97151 0.528987,-1.75924 1.257062,-3.45238 1.88559,-5.17857 2.179474,-3.91433 2.105539,-4.47428 5.174869,-7.51592 0.991246,-0.9823 2.456551,-1.52361 3.190849,-2.71033 0.388715,-0.62821 -2.646463,1.28422 -2.043933,0.85678 2.326,-1.65008 5.403924,-2.82625 7.990626,-3.94914 3.025097,-1.03359 4.669255,-1.73451 7.790053,-2.28167 4.51118,-0.79093 8.67141,-0.45444 12.96117,1.12114 0.8241,0.35661 1.66751,0.67156 2.4723,1.06983 2.31639,1.14632 4.48848,2.69288 6.14478,4.68903 0,0 6.55611,-3.93347 6.55611,-3.93347 z"
       id="path32"
       style="fill:#000000;fill-opacity:1;fill-rule:nonzero;stroke:none;stroke-width:0.264583" />
  </g>
</svg>
